<?xml version="1.0" encoding="UTF-8"?>
<!DOCTYPE svg PUBLIC "-//W3C//DTD SVG 1.1//EN" "http://www.w3.org/Graphics/SVG/1.1/DTD/svg11.dtd">
<svg xmlns="http://www.w3.org/2000/svg" version="1.1" width="700px" height="168px" style="shape-rendering:geometricPrecision; text-rendering:geometricPrecision; image-rendering:optimizeQuality; fill-rule:evenodd; clip-rule:evenodd" xmlns:xlink="http://www.w3.org/1999/xlink">
<g><path style="opacity:0.954" fill="#67b335" d="M 591.5,-0.5 C 611.5,-0.5 631.5,-0.5 651.5,-0.5C 652.209,0.403972 653.209,0.737305 654.5,0.5C 655.45,15.1309 655.784,29.7975 655.5,44.5C 670.202,44.2164 684.869,44.5497 699.5,45.5C 699.5,67.1667 699.5,88.8333 699.5,110.5C 684.912,111.483 670.245,111.816 655.5,111.5C 654.209,125.042 654.209,138.542 655.5,152C 654.833,153.333 654.167,154.667 653.5,156C 632.167,156.667 610.833,156.667 589.5,156C 588.175,138.231 588.175,120.398 589.5,102.5C 593.186,106.02 597.019,109.353 601,112.5C 601.5,122.161 601.666,131.828 601.5,141.5C 614.833,141.5 628.167,141.5 641.5,141.5C 641.334,132.161 641.5,122.827 642,113.5C 647.355,109.646 651.855,104.979 655.5,99.5C 665.478,98.5015 675.478,98.1681 685.5,98.5C 685.5,85.1667 685.5,71.8333 685.5,58.5C 675.395,58.9495 665.395,58.4495 655.5,57C 654,54.8333 652.5,52.6667 651,50.5C 647.651,48.147 644.651,45.4804 642,42.5C 641.5,33.1726 641.334,23.8393 641.5,14.5C 628.167,14.5 614.833,14.5 601.5,14.5C 601.832,24.5222 601.499,34.5222 600.5,44.5C 594.994,48.1732 590.328,52.6732 586.5,58C 576.839,58.4998 567.172,58.6665 557.5,58.5C 557.5,54.1667 557.5,49.8333 557.5,45.5C 566.839,45.6665 576.173,45.4998 585.5,45C 586.416,44.6258 587.25,44.1258 588,43.5C 588.5,29.1705 588.667,14.8372 588.5,0.5C 589.791,0.737305 590.791,0.403972 591.5,-0.5 Z"/></g>
<g><path style="opacity:0.934" fill="#595959" d="M 441.5,43.5 C 444.518,43.3354 447.518,43.502 450.5,44C 460.268,65.2918 469.268,86.9585 477.5,109C 477.355,109.772 477.022,110.439 476.5,111C 472.167,111.667 467.833,111.667 463.5,111C 460.969,106.937 458.969,102.604 457.5,98C 449.507,97.5003 441.507,97.3336 433.5,97.5C 432.331,102.174 430.664,106.674 428.5,111C 424.5,111.667 420.5,111.667 416.5,111C 415.919,110.107 415.585,109.107 415.5,108C 423.486,86.205 432.153,64.705 441.5,43.5 Z M 445.5,62.5 C 447.688,70.0682 450.354,77.5682 453.5,85C 448.467,85.8289 443.467,85.6623 438.5,84.5C 441.241,77.2773 443.575,69.9439 445.5,62.5 Z"/></g>
<g><path style="opacity:0.939" fill="#595959" d="M 498.5,43.5 C 506.093,43.052 513.426,44.2187 520.5,47C 525.809,51.918 525.809,56.7513 520.5,61.5C 512.923,56.4108 504.923,55.4108 496.5,58.5C 494.618,62.4151 495.618,65.2484 499.5,67C 506.75,70.2971 513.75,73.9638 520.5,78C 529.833,88 529.833,98 520.5,108C 508.663,113.583 496.663,113.916 484.5,109C 480.741,105.257 479.574,100.757 481,95.5C 481.519,94.4844 482.353,93.8178 483.5,93.5C 486.947,94.7229 490.28,96.2229 493.5,98C 498.095,99.3929 502.761,99.7262 507.5,99C 512.7,96.8623 513.7,93.529 510.5,89C 502.744,85.191 495.078,81.191 487.5,77C 479.63,69.1297 478.464,60.2963 484,50.5C 488.232,46.7121 493.065,44.3788 498.5,43.5 Z"/></g>
<g><path style="opacity:0.945" fill="#5a5a5a" d="M 615.5,43.5 C 640.379,41.8905 654.046,53.3905 656.5,78C 655.527,100.474 643.86,111.974 621.5,112.5C 605.317,112.997 594.483,105.663 589,90.5C 586.057,78.9478 587.391,67.9478 593,57.5C 598.72,49.894 606.22,45.2273 615.5,43.5 Z M 619.5,56.5 C 630.154,56.3255 636.987,61.3255 640,71.5C 642.543,93.9708 633.043,102.471 611.5,97C 601.604,87.0596 600.104,75.893 607,63.5C 610.464,59.6898 614.631,57.3564 619.5,56.5 Z"/></g>
<g><path style="opacity:0.957" fill="#5a5a5a" d="M -0.5,45.5 C 9.17241,45.3335 18.8391,45.5002 28.5,46C 47.1374,48.6319 56.4708,59.2986 56.5,78C 57.1208,96.3738 48.4542,107.374 30.5,111C 19.933,113.483 9.59965,112.983 -0.5,109.5C -0.5,88.1667 -0.5,66.8333 -0.5,45.5 Z M 13.5,58.5 C 35.5519,56.3777 44.3853,66.0443 40,87.5C 35.764,96.1235 28.764,100.124 19,99.5C 17.175,99.0566 15.3417,98.7233 13.5,98.5C 13.5,85.1667 13.5,71.8333 13.5,58.5 Z"/></g>
<g><path style="opacity:0.937" fill="#5a5a5a" d="M 340.5,45.5 C 345.43,45.1975 350.263,45.5308 355,46.5C 361,61.8333 367,77.1667 373,92.5C 378.853,77.2771 384.52,61.9438 390,46.5C 395.114,45.1958 400.281,45.1958 405.5,46.5C 407.164,67.7817 407.998,89.1151 408,110.5C 403.667,111.833 399.333,111.833 395,110.5C 393.809,97.2024 393.142,83.8691 393,70.5C 388.369,83.7548 383.202,96.7548 377.5,109.5C 373.81,110.996 370.31,110.663 367,108.5C 361.805,96.5811 356.805,84.5811 352,72.5C 351.692,85.187 351.025,97.8537 350,110.5C 346.256,111.626 342.423,111.793 338.5,111C 337.448,89.1289 338.115,67.2956 340.5,45.5 Z"/></g>
<g><path style="opacity:0.915" fill="#5a5a5a" d="M 539.5,45.5 C 544.099,45.2 548.599,45.5333 553,46.5C 553.5,63.8301 553.667,81.1635 553.5,98.5C 563.416,98.181 573.25,98.5144 583,99.5C 583.793,103.423 583.626,107.256 582.5,111C 568.155,111.833 553.822,111.666 539.5,110.5C 538.177,88.8334 538.177,67.1667 539.5,45.5 Z"/></g>
<g><path style="opacity:0.95" fill="#595959" d="M 183.5,48.5 C 187.106,48.2108 190.606,48.5442 194,49.5C 194.499,53.8206 194.666,58.1539 194.5,62.5C 198.555,62.1758 202.555,62.5091 206.5,63.5C 209.175,73.8182 205.175,77.4849 194.5,74.5C 194.179,82.5607 194.679,90.5607 196,98.5C 196.956,99.8941 198.289,100.561 200,100.5C 202.877,99.7327 205.71,99.2327 208.5,99C 209.617,102.073 209.784,105.24 209,108.5C 207.681,110.487 205.848,111.654 203.5,112C 198.079,112.839 192.746,112.506 187.5,111C 184.533,108.9 182.7,106.066 182,102.5C 181.204,93.1627 180.37,83.8293 179.5,74.5C 177.885,73.846 176.218,73.346 174.5,73C 171.404,65.7276 173.737,62.2276 181.5,62.5C 181.352,57.6784 182.019,53.0117 183.5,48.5 Z"/></g>
<g><path style="opacity:0.942" fill="#5a5a5a" d="M 88.5,60.5 C 108.918,62.0925 117.751,73.0925 115,93.5C 112.945,103.222 107.112,109.389 97.5,112C 73.3356,115.166 62.169,104.666 64,80.5C 67.3491,67.7626 75.5158,61.0959 88.5,60.5 Z M 88.5,72.5 C 97.1913,73.3606 101.525,78.1939 101.5,87C 100.837,97.8347 95.1704,102.168 84.5,100C 76.7227,93.2284 75.556,85.3951 81,76.5C 83.2552,74.5012 85.7552,73.1679 88.5,72.5 Z"/></g>
<g><path style="opacity:0.934" fill="#595959" d="M 147.5,60.5 C 151.869,61.0885 156.202,61.9218 160.5,63C 165.916,66.2027 166.916,70.536 163.5,76C 158.759,74.8731 153.926,73.7064 149,72.5C 137.875,74.734 133.875,81.4007 137,92.5C 139.263,98.0529 143.43,100.72 149.5,100.5C 153.706,100.32 157.706,99.3202 161.5,97.5C 164.104,98.269 165.938,99.9357 167,102.5C 167.624,104.464 167.124,106.131 165.5,107.5C 157.473,112.218 148.806,113.718 139.5,112C 129.025,109.188 123.192,102.355 122,91.5C 120.23,72.4544 128.73,62.1211 147.5,60.5 Z"/></g>
<g><path style="opacity:0.943" fill="#5a5a5a" d="M 238.5,60.5 C 257.892,61.7292 266.725,72.0626 265,91.5C 260.531,108.833 249.365,115.667 231.5,112C 215.86,106.227 210.026,95.0604 214,78.5C 218.137,66.8453 226.304,60.8453 238.5,60.5 Z M 238.5,72.5 C 247.135,73.1382 251.135,77.8049 250.5,86.5C 250.506,97.3274 245.173,101.827 234.5,100C 229.434,96.9989 227.101,92.4989 227.5,86.5C 227.531,78.8179 231.198,74.1512 238.5,72.5 Z"/></g>
<g><path style="opacity:0.956" fill="#5a5a5a" d="M 301.5,60.5 C 310.528,61.4694 312.861,65.9694 308.5,74C 304.5,74.3333 300.5,74.6667 296.5,75C 294.413,75.7922 292.579,76.9588 291,78.5C 289.713,89.0688 289.046,99.7355 289,110.5C 285.256,111.626 281.423,111.793 277.5,111C 276.8,95.5022 275.966,80.0022 275,64.5C 280.557,60.2987 285.557,60.9653 290,66.5C 293.308,63.2645 297.141,61.2645 301.5,60.5 Z"/></g>
<g><path style="opacity:0.876" fill="#65b034" d="M 99.5,133.5 C 112.133,132.628 116.967,138.295 114,150.5C 108.963,156.99 102.796,158.156 95.5,154C 91.8633,149.626 91.03,144.793 93,139.5C 94.4361,136.558 96.6028,134.558 99.5,133.5 Z M 101.5,139.5 C 107.178,139.157 109.344,141.824 108,147.5C 104.527,151.717 101.527,151.384 99,146.5C 98.5486,143.686 99.3819,141.353 101.5,139.5 Z"/></g>
<g><path style="opacity:0.867" fill="#66b134" d="M 178.5,133.5 C 192.646,132.782 197.312,139.115 192.5,152.5C 185.714,158.007 179.214,157.673 173,151.5C 169.935,143.869 171.768,137.869 178.5,133.5 Z M 180.5,139.5 C 186.997,139.18 189.164,142.18 187,148.5C 183.844,151.399 181.178,151.065 179,147.5C 178.109,144.502 178.609,141.836 180.5,139.5 Z"/></g>
<g><path style="opacity:0.878" fill="#66b034" d="M 242.5,133.5 C 255.133,132.628 259.967,138.295 257,150.5C 251.963,156.99 245.796,158.156 238.5,154C 235.066,149.512 234.233,144.678 236,139.5C 237.494,136.686 239.66,134.686 242.5,133.5 Z M 244.5,139.5 C 250.178,139.157 252.344,141.824 251,147.5C 247.527,151.717 244.527,151.384 242,146.5C 241.683,143.793 242.516,141.46 244.5,139.5 Z"/></g>
<g><path style="opacity:0.865" fill="#65b034" d="M 312.5,133.5 C 328.099,133.2 332.433,140.033 325.5,154C 312.416,159.667 305.916,155.501 306,141.5C 307.277,138.062 309.443,135.395 312.5,133.5 Z M 314.5,139.5 C 319.795,138.963 322.295,141.297 322,146.5C 320.666,150.104 318.166,151.271 314.5,150C 311.899,146.504 311.899,143.004 314.5,139.5 Z"/></g>
<g><path style="opacity:0.89" fill="#66b234" d="M 337.5,167.5 C 336.167,167.5 334.833,167.5 333.5,167.5C 332.81,157.216 332.143,146.883 331.5,136.5C 331.952,134.688 333.118,133.688 335,133.5C 338.125,134.437 341.291,134.437 344.5,133.5C 351.235,133.921 354.568,137.588 354.5,144.5C 353.28,153.792 347.947,157.792 338.5,156.5C 338.756,160.269 338.423,163.936 337.5,167.5 Z M 340.5,139.5 C 346.499,139.002 348.666,141.669 347,147.5C 344.804,150.125 341.97,151.125 338.5,150.5C 338.01,146.513 338.676,142.846 340.5,139.5 Z"/></g>
<g><path style="opacity:0.871" fill="#67b235" d="M 400.5,167.5 C 399.5,167.5 398.5,167.5 397.5,167.5C 395.843,157.039 394.843,146.373 394.5,135.5C 396.956,132.92 399.456,132.92 402,135.5C 408.324,131.973 413.324,133.306 417,139.5C 419.14,151.19 414.307,156.856 402.5,156.5C 402.964,160.502 402.298,164.169 400.5,167.5 Z M 404.5,139.5 C 410.204,139.146 412.037,141.813 410,147.5C 409.626,148.416 409.126,149.25 408.5,150C 406.527,150.495 404.527,150.662 402.5,150.5C 402.036,146.498 402.702,142.831 404.5,139.5 Z"/></g>
<g><path style="opacity:0.863" fill="#66b134" d="M 427.5,133.5 C 439.319,132.485 444.486,137.818 443,149.5C 439.551,155.544 434.385,157.71 427.5,156C 420.01,151.021 418.51,144.521 423,136.5C 424.652,135.601 426.152,134.601 427.5,133.5 Z M 429.5,139.5 C 435.997,139.18 438.164,142.18 436,148.5C 428.962,151.813 426.295,149.479 428,141.5C 428.717,140.956 429.217,140.289 429.5,139.5 Z"/></g>
<g><path style="opacity:0.846" fill="#67b335" d="M 503.5,133.5 C 507.308,133.163 510.974,133.663 514.5,135C 515.406,136.699 515.739,138.533 515.5,140.5C 512.201,139.624 508.868,139.457 505.5,140C 502.833,143.333 502.833,146.667 505.5,150C 508.856,150.215 512.189,150.215 515.5,150C 516.86,151.938 516.527,153.604 514.5,155C 501.242,158.966 495.408,154.133 497,140.5C 498.018,136.985 500.185,134.652 503.5,133.5 Z"/></g>
<g><path style="opacity:0.871" fill="#65b034" d="M 523.5,133.5 C 526.85,133.335 530.183,133.502 533.5,134C 534.931,134.465 536.097,135.299 537,136.5C 537.5,142.825 537.666,149.158 537.5,155.5C 535.409,155.682 533.409,155.348 531.5,154.5C 527.037,157.392 522.87,157.059 519,153.5C 517.683,144.034 521.85,140.367 531.5,142.5C 531.5,141.5 531.5,140.5 531.5,139.5C 530.178,139.67 529.011,139.337 528,138.5C 525.61,139.724 523.11,140.224 520.5,140C 519.483,138.951 519.316,137.784 520,136.5C 521.145,135.364 522.312,134.364 523.5,133.5 Z M 526.5,146.5 C 528.167,146.5 529.833,146.5 531.5,146.5C 531.17,149.109 529.67,150.776 527,151.5C 525.212,149.977 525.045,148.31 526.5,146.5 Z"/></g>
<g><path style="opacity:0.946" fill="#67b335" d="M 70.5,134.5 C 77.5,134.5 84.5,134.5 91.5,134.5C 91.5,136.167 91.5,137.833 91.5,139.5C 89.1667,139.5 86.8333,139.5 84.5,139.5C 84.5,144.833 84.5,150.167 84.5,155.5C 82.5,155.5 80.5,155.5 78.5,155.5C 78.5,150.167 78.5,144.833 78.5,139.5C 75.8333,139.5 73.1667,139.5 70.5,139.5C 70.5,137.833 70.5,136.167 70.5,134.5 Z"/></g>
<g><path style="opacity:0.875" fill="#67b335" d="M 129.5,134.5 C 131.833,134.5 134.167,134.5 136.5,134.5C 136.5,137.5 136.5,140.5 136.5,143.5C 138.167,143.5 139.833,143.5 141.5,143.5C 141.5,140.5 141.5,137.5 141.5,134.5C 143.833,134.5 146.167,134.5 148.5,134.5C 148.5,141.5 148.5,148.5 148.5,155.5C 146.167,155.5 143.833,155.5 141.5,155.5C 141.663,153.143 141.497,150.81 141,148.5C 137.507,149.954 134.174,149.621 131,147.5C 129.71,143.27 129.21,138.936 129.5,134.5 Z"/></g>
<g><path style="opacity:0.868" fill="#67b335" d="M 150.5,134.5 C 157.5,134.5 164.5,134.5 171.5,134.5C 171.5,136.167 171.5,137.833 171.5,139.5C 169.167,139.5 166.833,139.5 164.5,139.5C 164.5,144.833 164.5,150.167 164.5,155.5C 162.167,155.5 159.833,155.5 157.5,155.5C 157.5,150.167 157.5,144.833 157.5,139.5C 155.167,139.5 152.833,139.5 150.5,139.5C 150.5,137.833 150.5,136.167 150.5,134.5 Z"/></g>
<g><path style="opacity:0.876" fill="#67b335" d="M 213.5,134.5 C 219.167,134.5 224.833,134.5 230.5,134.5C 230.614,143.818 231.614,152.818 233.5,161.5C 231.5,161.5 229.5,161.5 227.5,161.5C 227.5,159.5 227.5,157.5 227.5,155.5C 222.833,155.5 218.167,155.5 213.5,155.5C 213.5,157.5 213.5,159.5 213.5,161.5C 211.833,161.5 210.167,161.5 208.5,161.5C 208.335,157.818 208.501,154.152 209,150.5C 210,149.833 211,149.167 212,148.5C 213.122,143.898 213.622,139.232 213.5,134.5 Z M 219.5,139.5 C 220.833,139.5 222.167,139.5 223.5,139.5C 223.5,143.167 223.5,146.833 223.5,150.5C 221.473,150.662 219.473,150.495 217.5,150C 218.739,146.636 219.406,143.136 219.5,139.5 Z"/></g>
<g><path style="opacity:0.898" fill="#65af34" d="M 261.5,134.5 C 267.362,133.195 269.862,135.528 269,141.5C 271.19,139.612 273.023,137.445 274.5,135C 276.473,134.505 278.473,134.338 280.5,134.5C 279.121,137.741 277.455,140.907 275.5,144C 276.924,147.092 278.757,149.926 281,152.5C 280.455,156.582 278.289,157.416 274.5,155C 272.667,152.5 270.833,150 269,147.5C 268.667,149.833 268.333,152.167 268,154.5C 265.959,155.423 263.792,155.756 261.5,155.5C 261.5,148.5 261.5,141.5 261.5,134.5 Z"/></g>
<g><path style="opacity:0.868" fill="#67b335" d="M 283.5,134.5 C 290.5,134.5 297.5,134.5 304.5,134.5C 304.5,136.167 304.5,137.833 304.5,139.5C 302.167,139.5 299.833,139.5 297.5,139.5C 297.5,144.833 297.5,150.167 297.5,155.5C 295.167,155.5 292.833,155.5 290.5,155.5C 290.5,150.167 290.5,144.833 290.5,139.5C 288.167,139.5 285.833,139.5 283.5,139.5C 283.5,137.833 283.5,136.167 283.5,134.5 Z"/></g>
<g><path style="opacity:0.933" fill="#67b335" d="M 370.5,134.5 C 377.167,134.5 383.833,134.5 390.5,134.5C 390.5,141.5 390.5,148.5 390.5,155.5C 388.5,155.5 386.5,155.5 384.5,155.5C 384.5,150.167 384.5,144.833 384.5,139.5C 382.167,139.5 379.833,139.5 377.5,139.5C 377.666,144.511 377.499,149.511 377,154.5C 374.959,155.423 372.792,155.756 370.5,155.5C 370.5,148.5 370.5,141.5 370.5,134.5 Z"/></g>
<g><path style="opacity:0.843" fill="#67b335" d="M 446.5,134.5 C 453.5,134.5 460.5,134.5 467.5,134.5C 467.5,141.5 467.5,148.5 467.5,155.5C 465.167,155.5 462.833,155.5 460.5,155.5C 460.5,150.167 460.5,144.833 460.5,139.5C 458.167,139.5 455.833,139.5 453.5,139.5C 453.5,144.833 453.5,150.167 453.5,155.5C 451.167,155.5 448.833,155.5 446.5,155.5C 446.5,148.5 446.5,141.5 446.5,134.5 Z"/></g>
<g><path style="opacity:0.877" fill="#66b134" d="M 471.5,134.5 C 473.833,134.5 476.167,134.5 478.5,134.5C 478.335,137.85 478.502,141.183 479,144.5C 481.5,141.333 484,138.167 486.5,135C 488.769,134.242 490.936,134.409 493,135.5C 493.667,141.833 493.667,148.167 493,154.5C 490.959,155.423 488.792,155.756 486.5,155.5C 486.665,151.818 486.499,148.152 486,144.5C 483.623,148.088 481.123,151.588 478.5,155C 476.19,155.497 473.857,155.663 471.5,155.5C 471.5,148.5 471.5,141.5 471.5,134.5 Z"/></g>
<g><path style="opacity:0.863" fill="#67b335" d="M 545.5,134.5 C 551.167,134.5 556.833,134.5 562.5,134.5C 562.5,141.5 562.5,148.5 562.5,155.5C 560.167,155.5 557.833,155.5 555.5,155.5C 555.5,150.167 555.5,144.833 555.5,139.5C 554.167,139.5 552.833,139.5 551.5,139.5C 551.42,144.316 550.586,148.983 549,153.5C 545.927,157.29 543.094,157.29 540.5,153.5C 541.769,151.936 542.936,150.269 544,148.5C 545.122,143.898 545.622,139.232 545.5,134.5 Z"/></g>
</svg>
